<svg id="Layer_1" xmlns="http://www.w3.org/2000/svg" viewBox="0 0 116.7 11.6"><style>.st0{fill:#fc6a42}.st1{fill:#648cff}</style><path class="st0" d="M.3 11.3V.2h7.4v2.1H2.8v2.3h4.4v2.1H2.8v4.6H.3zm13.5.2c-.8 0-1.5-.1-2-.3-.6-.2-1-.5-1.4-.9-.4-.4-.7-.9-.8-1.4-.2-.6-.3-1.2-.3-1.8V.2h2.5v6.7c0 .4.1.8.2 1.1.1.3.2.6.4.8.1.2.4.3.6.4.3.1.5.1.8.1.6 0 1.1-.2 1.5-.6.4-.4.6-1 .6-1.9V.2h2.5v6.9c0 .7-.1 1.2-.3 1.8-.2.5-.5 1-.8 1.4-.4.4-.8.7-1.4.9-.6.2-1.3.3-2.1.3zm14.4-.2c-.7-1.3-1.5-2.5-2.3-3.8S24.2 5.1 23.2 4v7.3h-2.5V.2h2c.5.3.8.8 1.3 1.3s.9 1.1 1.3 1.6c.4.6.9 1.2 1.3 1.8l1.2 1.8V.2h2.5v11.1h-2.1z"/><path class="st1" d="M44.2 1.4c.1.4.3.9.4 1.5.2.5.3 1.1.5 1.7.2.6.4 1.2.5 1.8.2.5.4 1.1.5 1.6.1-.5.3-1.1.4-1.8.1-.6.3-1.3.4-2s.3-1.4.4-2c.1-.7.2-1.3.3-2h2.6c-.4 1.9-.8 3.7-1.3 5.6-.5 1.9-1 3.7-1.6 5.4H45c-.4-1-.7-2.1-1.1-3.2-.4-1.1-.7-2.3-1-3.4-.3 1.1-.7 2.3-1 3.4-.3 1.1-.7 2.2-1.1 3.2h-2.3c-.6-1.7-1.1-3.5-1.6-5.4C36.4 3.9 36 2 35.6.2h2.7c.1.6.2 1.3.4 2 .1.7.3 1.4.4 2 .1.7.3 1.3.4 2 .1.6.3 1.2.4 1.8.2-.5.4-1.1.6-1.7.2-.6.4-1.2.5-1.8.2-.6.3-1.2.5-1.7.1-.5.3-1 .4-1.5h2.3zm7.7 9.9V.2h7.5v2.1h-5v2.2h4.4v2h-4.4v2.7h5.4v2.1h-7.9zm17.1 0c-.1-.4-.3-.8-.4-1.2-.1-.4-.3-.8-.4-1.2h-4.3c-.1.4-.3.8-.4 1.2-.1.4-.3.8-.4 1.2h-2.6c.4-1.2.8-2.3 1.2-3.3.4-1 .7-2 1.1-2.9s.7-1.7 1.1-2.6c.3-.8.7-1.6 1.1-2.4h2.4c.2.9.6 1.7.9 2.5.4.8.7 1.7 1.1 2.6S70.1 7 70.5 8c.4 1 .8 2.1 1.2 3.3H69zm-3-8.6c-.1.2-.1.4-.2.7-.1.3-.2.6-.4 1-.1.4-.3.8-.5 1.2-.2.4-.3.9-.5 1.4h3.2c-.2-.5-.3-.9-.5-1.4s-.3-.8-.5-1.2c-.1-.4-.3-.7-.4-1s-.1-.5-.2-.7zM80 .2v2.1h-3.3v9h-2.5v-9h-3.3V.2H80zm8.3 0h2.5v11.1h-2.5V6.6h-4.2v4.7h-2.5V.2h2.5v4.2h4.2V.2zm5.1 11.1V.2h7.5v2.1h-5v2.2h4.4v2h-4.4v2.7h5.4v2.1h-7.9zM106.3.1c1.7 0 2.9.3 3.8.9.9.6 1.3 1.5 1.3 2.8 0 .8-.2 1.4-.5 1.9s-.9.9-1.5 1.1c.2.3.5.6.7 1 .2.4.5.7.7 1.1.2.4.5.8.7 1.2l.6 1.2h-2.8c-.2-.4-.4-.7-.6-1.1-.2-.4-.4-.7-.6-1.1-.2-.4-.4-.7-.7-1l-.6-.9h-1.2v4h-2.5V.4c.5-.1 1.1-.2 1.7-.2.5-.1 1.1-.1 1.5-.1zm.2 2.1h-.9v3h.7c.9 0 1.6-.1 2-.4.4-.2.6-.6.6-1.2 0-.5-.2-.9-.6-1.2-.4-.1-1-.2-1.8-.2zm9.8 7.8c0 .5-.2.8-.5 1.1s-.6.4-1 .4-.7-.1-1-.4-.5-.6-.5-1.1.2-.8.5-1.1.6-.4 1-.4.7.1 1 .4.5.6.5 1.1z"/></svg>