<?xml version="1.0" encoding="utf-8"?>
<!-- Generator: Adobe Illustrator 19.2.1, SVG Export Plug-In . SVG Version: 6.00 Build 0)  -->
<svg version="1.1" id="Layer_1" xmlns="http://www.w3.org/2000/svg" xmlns:xlink="http://www.w3.org/1999/xlink" x="0px" y="0px"
	 viewBox="0 0 116.7 11.6" style="enable-background:new 0 0 116.7 11.6;" xml:space="preserve">
<style type="text/css">
	.st0{fill:#FFFFFF;}
</style>
<g>
	<path class="st0" d="M0.3,11.3V0.2h7.4v2.1H2.8v2.3h4.4v2.1H2.8v4.6H0.3z"/>
	<path class="st0" d="M13.8,11.5c-0.8,0-1.5-0.1-2-0.3c-0.6-0.2-1-0.5-1.4-0.9C10,9.9,9.7,9.4,9.6,8.9C9.4,8.3,9.3,7.7,9.3,7.1V0.2
		h2.5v6.7c0,0.4,0.1,0.8,0.2,1.1c0.1,0.3,0.2,0.6,0.4,0.8C12.5,9,12.8,9.1,13,9.2c0.3,0.1,0.5,0.1,0.8,0.1c0.6,0,1.1-0.2,1.5-0.6
		c0.4-0.4,0.6-1,0.6-1.9V0.2h2.5v6.9c0,0.7-0.1,1.2-0.3,1.8c-0.2,0.5-0.5,1-0.8,1.4c-0.4,0.4-0.8,0.7-1.4,0.9
		C15.3,11.4,14.6,11.5,13.8,11.5z"/>
	<path class="st0" d="M28.2,11.3c-0.7-1.3-1.5-2.5-2.3-3.8S24.2,5.1,23.2,4v7.3h-2.5V0.2h2C23.2,0.5,23.5,1,24,1.5s0.9,1.1,1.3,1.6
		c0.4,0.6,0.9,1.2,1.3,1.8c0.4,0.6,0.8,1.2,1.2,1.8V0.2h2.5v11.1H28.2z"/>
	<path class="st0" d="M44.2,1.4c0.1,0.4,0.3,0.9,0.4,1.5c0.2,0.5,0.3,1.1,0.5,1.7c0.2,0.6,0.4,1.2,0.5,1.8C45.8,6.9,46,7.5,46.1,8
		c0.1-0.5,0.3-1.1,0.4-1.8c0.1-0.6,0.3-1.3,0.4-2s0.3-1.4,0.4-2c0.1-0.7,0.2-1.3,0.3-2h2.6c-0.4,1.9-0.8,3.7-1.3,5.6
		c-0.5,1.9-1,3.7-1.6,5.4h-2.3c-0.4-1-0.7-2.1-1.1-3.2c-0.4-1.1-0.7-2.3-1-3.4c-0.3,1.1-0.7,2.3-1,3.4c-0.3,1.1-0.7,2.2-1.1,3.2
		h-2.3c-0.6-1.7-1.1-3.5-1.6-5.4c-0.5-1.9-0.9-3.8-1.3-5.6h2.7c0.1,0.6,0.2,1.3,0.4,2c0.1,0.7,0.3,1.4,0.4,2c0.1,0.7,0.3,1.3,0.4,2
		c0.1,0.6,0.3,1.2,0.4,1.8c0.2-0.5,0.4-1.1,0.6-1.7c0.2-0.6,0.4-1.2,0.5-1.8c0.2-0.6,0.3-1.2,0.5-1.7c0.1-0.5,0.3-1,0.4-1.5H44.2z"
		/>
	<path class="st0" d="M51.9,11.3V0.2h7.5v2.1h-5v2.2h4.4v2h-4.4v2.7h5.4v2.1H51.9z"/>
	<path class="st0" d="M69,11.3c-0.1-0.4-0.3-0.8-0.4-1.2c-0.1-0.4-0.3-0.8-0.4-1.2h-4.3c-0.1,0.4-0.3,0.8-0.4,1.2
		c-0.1,0.4-0.3,0.8-0.4,1.2h-2.6c0.4-1.2,0.8-2.3,1.2-3.3c0.4-1,0.7-2,1.1-2.9s0.7-1.7,1.1-2.6c0.3-0.8,0.7-1.6,1.1-2.4h2.4
		C67.6,1,68,1.8,68.3,2.6c0.4,0.8,0.7,1.7,1.1,2.6S70.1,7,70.5,8c0.4,1,0.8,2.1,1.2,3.3H69z M66,2.7c-0.1,0.2-0.1,0.4-0.2,0.7
		c-0.1,0.3-0.2,0.6-0.4,1c-0.1,0.4-0.3,0.8-0.5,1.2c-0.2,0.4-0.3,0.9-0.5,1.4h3.2c-0.2-0.5-0.3-0.9-0.5-1.4s-0.3-0.8-0.5-1.2
		c-0.1-0.4-0.3-0.7-0.4-1S66.1,2.9,66,2.7z"/>
	<path class="st0" d="M80,0.2v2.1h-3.3v9h-2.5v-9h-3.3V0.2H80z"/>
	<path class="st0" d="M88.3,0.2h2.5v11.1h-2.5V6.6h-4.2v4.7h-2.5V0.2h2.5v4.2h4.2V0.2z"/>
	<path class="st0" d="M93.4,11.3V0.2h7.5v2.1h-5v2.2h4.4v2h-4.4v2.7h5.4v2.1H93.4z"/>
	<path class="st0" d="M106.3,0.1c1.7,0,2.9,0.3,3.8,0.9c0.9,0.6,1.3,1.5,1.3,2.8c0,0.8-0.2,1.4-0.5,1.9s-0.9,0.9-1.5,1.1
		c0.2,0.3,0.5,0.6,0.7,1c0.2,0.4,0.5,0.7,0.7,1.1c0.2,0.4,0.5,0.8,0.7,1.2c0.2,0.4,0.4,0.8,0.6,1.2h-2.8c-0.2-0.4-0.4-0.7-0.6-1.1
		c-0.2-0.4-0.4-0.7-0.6-1.1c-0.2-0.4-0.4-0.7-0.7-1c-0.2-0.3-0.4-0.6-0.6-0.9h-1.2v4h-2.5V0.4c0.5-0.1,1.1-0.2,1.7-0.2
		C105.3,0.1,105.9,0.1,106.3,0.1z M106.5,2.2c-0.2,0-0.3,0-0.5,0s-0.3,0-0.4,0v3h0.7c0.9,0,1.6-0.1,2-0.4c0.4-0.2,0.6-0.6,0.6-1.2
		c0-0.5-0.2-0.9-0.6-1.2C107.9,2.3,107.3,2.2,106.5,2.2z"/>
	<path class="st0" d="M116.3,10c0,0.5-0.2,0.8-0.5,1.1s-0.6,0.4-1,0.4c-0.4,0-0.7-0.1-1-0.4s-0.5-0.6-0.5-1.1s0.2-0.8,0.5-1.1
		s0.6-0.4,1-0.4c0.4,0,0.7,0.1,1,0.4S116.3,9.5,116.3,10z"/>
</g>
</svg>
