<?xml version="1.0" encoding="utf-8"?>
<!-- Generator: Adobe Illustrator 19.1.0, SVG Export Plug-In . SVG Version: 6.00 Build 0)  -->
<svg version="1.1" id="Layer_1" xmlns="http://www.w3.org/2000/svg" xmlns:xlink="http://www.w3.org/1999/xlink" x="0px" y="0px"
	 viewBox="0 0 1018 302.8" style="enable-background:new 0 0 1018 302.8;" xml:space="preserve">
<style type="text/css">
	.st0{fill:#262E2F;}
	.st1{fill:url(#SVGID_1_);}
	.st2{fill:none;}
	.st3{fill:url(#SVGID_2_);}
	.st4{fill:url(#SVGID_3_);}
	.st5{fill:url(#SVGID_4_);}
	.st6{fill:url(#SVGID_5_);}
	.st7{fill:url(#SVGID_6_);}
	.st8{fill:url(#SVGID_7_);}
</style>
<g>
	<g>
		<path class="st0" d="M670.6,0c7.5,0,14.9,0,22.4,0c0,7.7,0,15.3,0,23c-7.5,0-14.9,0-22.4,0C670.6,15.3,670.6,7.7,670.6,0z"/>
		<path class="st0" d="M789.4,0c7.5,0,14.9,0,22.4,0c0,7.7,0,15.3,0,23c-7.5,0-14.9,0-22.4,0C789.4,15.3,789.4,7.7,789.4,0z"/>
		<g>
			<path class="st0" d="M358.4,4.5c19.4,0.4,38.8-0.8,58.1,0.7c25.3,3,45.3,25.6,47.8,50.6c5,29.8-14.8,63-45.7,67.8
				c-20,2-40.1,0.4-60.2,0.9C358.4,84.4,358.3,44.5,358.4,4.5z M381.7,23c0.1,27.1-0.4,54.2,0.1,81.3c13.9-0.4,29.4,2.3,41.7-5.8
				c23.1-14.6,23.7-53.5,1-68.8C412,21,396,23.2,381.7,23z"/>
		</g>
		<path class="st0" d="M11.4,10.8c94.5,0.1,189.1-0.2,283.6,0.1c-61.9,38.2-124.6,75-186.9,112.6c-34-8.8-71.5,1.1-96.8,25.4
			C11.5,102.9,11.3,56.9,11.4,10.8z"/>
		<path class="st0" d="M179.4,195.3c39-61.8,79.1-122.9,117.5-185c-0.2,95.3,0.1,190.7-0.1,286c-49.4-0.1-98.7,0.2-148.1-0.2
			C176.7,271.6,188.7,231.3,179.4,195.3z"/>
		<g>
			<path class="st0" d="M483.1,59.5c11.1-21.9,40.7-30.3,62.1-18.8c18.5,8.4,27.5,29.7,24.6,49.3c-23.3,0.1-46.7-0.2-70,0.1
				c3.9,6.5,8,13.8,15.6,16.3c10.6,4,21.8-0.1,31.2-5.3c4.5,4.6,9,9.2,13.5,13.8c-17.5,12.4-42.3,17.1-61.1,4.9
				C478.8,107.9,471.5,79.7,483.1,59.5z M499.6,72.3c16.1,0.6,32.2,0.7,48.3-0.1c-4.7-9.1-12.8-18.2-24.1-17.7
				C512.5,53.9,504.4,63.1,499.6,72.3z"/>
		</g>
		<path class="st0" d="M594.2,48.1c17.9-17.8,49.6-16.2,66.8,1.8c-4.8,4.9-9.7,9.8-14.5,14.7c-5.9-4.9-12.6-10.2-20.7-9.5
			c-13.9,0.5-24.6,14.3-23.4,27.8c0.4,13.4,12.8,25.6,26.5,24.2c7.5-0.4,13-5.9,18.3-10.5c5,5.1,10,10.1,15,15.2
			c-16.3,16.5-44.1,20.4-63.1,6.4C576.4,102.7,574.5,66.6,594.2,48.1z"/>
		<path class="st0" d="M722.3,41.6c17.2-11.2,40.7-6.3,54.4,8.3c-4.3,4.5-8.5,9-12.8,13.5c-8.3-9.4-25.4-15-33.2-1.8
			c10,12.6,29.4,10.2,39.8,22.5c9.4,9.1,8.4,25.8-1.9,33.8c-16.9,14.1-44.4,10.7-58.3-6.1c4.1-4.6,8.3-9.2,12.6-13.7
			c7.4,6.6,17.4,13.1,27.7,9c4.9-0.8,6.4-8.3,2.2-11c-11.9-7.5-28.3-7.7-37.4-19.5C706.4,65.9,710.4,48.5,722.3,41.6z"/>
		<g>
			<path class="st0" d="M863.1,36.7c24.8-6.4,53.2,11,56.3,36.9c4.9,23.9-12.9,48.7-36.9,52.3c-23.3,5.1-48.8-10.8-53.5-34.4
				C822.6,67.8,839.5,41.8,863.1,36.7z M865.7,56.4c-11.4,4.4-18.1,17.4-15.9,29.3c1.8,12.6,14,23.5,27.1,21.4
				c15.1-1.7,25.1-19.1,20.6-33.2C894.2,60.5,878.8,50.9,865.7,56.4z"/>
		</g>
		<path class="st0" d="M955.7,43c9.4-5.3,20.3-9.3,31.2-6.7c14.8,2.5,25.6,16.8,25.6,31.6c0.7,18.9,0.2,37.8,0.3,56.6
			c-7.3,0-14.6,0-21.8,0c-0.4-19,0.8-38.1-0.6-57c-2.9-15.8-24.4-16.2-34.2-6.6c-1.3,21.1-0.1,42.4-0.5,63.6c-7.2,0-14.5,0-21.7,0
			c0-28.9,0-57.8,0-86.7c7.2,0,14.3,0,21.5,0C955.6,39,955.7,41.7,955.7,43z"/>
		<path class="st0" d="M670.9,37.7c7.2,0,14.4,0,21.7,0c0,28.9,0,57.8,0,86.7c-7.2,0-14.4,0-21.7,0
			C670.9,95.5,670.9,66.7,670.9,37.7z"/>
		<path class="st0" d="M789.8,37.7c7.2,0,14.4,0,21.6,0c0.3,28.9,0.4,57.8,0,86.7c-7.2,0-14.4,0-21.6,0
			C789.7,95.5,789.7,66.7,789.8,37.7z"/>
	</g>
	<linearGradient id="SVGID_1_" gradientUnits="userSpaceOnUse" x1="24.1882" y1="278.6596" x2="139.7174" y2="163.1305">
		<stop  offset="0" style="stop-color:#FF2E4B"/>
		<stop  offset="1" style="stop-color:#FFC50F"/>
	</linearGradient>
	<path class="st1" d="M62.2,141.6c43.5-12.2,92.3,18.8,99.9,63.2c9.6,42.2-20.3,87.8-62.7,95.9C57.9,311,12.2,282.6,2.7,241
		C-9.2,198.8,19.4,151.1,62.2,141.6z"/>
	<path class="st2" d="M553.3,249.5c-6.9,4.7-4.9,16.7,3,19c10.1,4.1,20.7-0.8,30-4.8c0.1-6.5,0.1-12.9,0.1-19.4
		C575.4,244.6,563,242.8,553.3,249.5z"/>
	<path class="st2" d="M787.1,205.4c-13.6-1-24.5,9.6-29.7,21.3c19.1,0.5,38.2,0.4,57.3,0.1C809.7,215.7,800,205.6,787.1,205.4z"/>
	<g>
		<g>
			<linearGradient id="SVGID_2_" gradientUnits="userSpaceOnUse" x1="360.7498" y1="216.2719" x2="1018.0367" y2="216.2719">
				<stop  offset="0" style="stop-color:#FF6A33"/>
				<stop  offset="1" style="stop-color:#FFC50F"/>
			</linearGradient>
			<path class="st3" d="M725.8,185.6c-10.1-0.3-20.2-0.3-30.3-0.1c-12,14.3-23.6,28.8-35.7,43c-0.6-29.3,0-58.6-0.1-87.9
				c-8.8,0-17.7,0-26.5-0.2c-0.7,49.7-0.1,99.4-0.2,149.1c8.8,0,17.6,0,26.4,0c0.3-15.3,0.2-30.6,0.3-45.9
				c13.7,15.2,27.3,30.5,41,45.8c10.4,0.2,20.8,0,31.2-0.1c-16-17.9-32.5-35.3-48.1-53.5C697.7,218.9,712,202.5,725.8,185.6z"/>
			<linearGradient id="SVGID_3_" gradientUnits="userSpaceOnUse" x1="360.7498" y1="216.2719" x2="1018.0367" y2="216.2719">
				<stop  offset="0" style="stop-color:#FF6A33"/>
				<stop  offset="1" style="stop-color:#FFC50F"/>
			</linearGradient>
			<path class="st4" d="M503.8,145.6c-10.1,0-20.2,0-30.3-0.1c-14.2,23.4-27.1,47.4-41.8,70.6c-13.2-23.5-26.2-47.1-39.4-70.5
				c-10.6,0-21.1,0-31.6,0c0.2,48-0.2,96,0.2,144c9.1-0.2,18.3-0.2,27.4-0.2c0-31.9,0-63.7,0-95.5c14.4,25.3,28.5,50.8,43,76
				c15.2-25,29.8-50.3,44.8-75.3c0.4,31.6,0.1,63.2,0.2,94.9c9.2,0,18.4,0,27.6,0C504,241.5,504.3,193.5,503.8,145.6z"/>
			<linearGradient id="SVGID_4_" gradientUnits="userSpaceOnUse" x1="360.7498" y1="216.2719" x2="1018.0367" y2="216.2719">
				<stop  offset="0" style="stop-color:#FF6A33"/>
				<stop  offset="1" style="stop-color:#FFC50F"/>
			</linearGradient>
			<path class="st5" d="M612.5,223.3c-0.6-14.2-7.9-28.4-20.9-35c-21.4-11.3-48.3-4.8-66,10.6c5,5.3,10.1,10.5,15.3,15.7
				c10.2-7.6,24.3-12.1,36.4-5.9c6.6,2.9,8.3,10.3,10.1,16.5c-18,0.1-38.1-1-53,10.9c-15.9,11.8-15.3,39.4,1.6,50
				c14.9,9.4,34.6,6.4,49.6-1.4l2.1,4.3c8.3,0.8,16.7,0.2,25.1,0.3C612.6,267.4,613.3,245.3,612.5,223.3z M586.4,263.8
				c-9.3,3.9-19.9,8.8-30,4.8c-7.9-2.4-9.9-14.4-3-19c9.7-6.7,22.1-4.8,33.2-5.1C586.5,250.8,586.5,257.3,586.4,263.8z"/>
			<linearGradient id="SVGID_5_" gradientUnits="userSpaceOnUse" x1="360.7498" y1="216.2719" x2="1018.0367" y2="216.2719">
				<stop  offset="0" style="stop-color:#FF6A33"/>
				<stop  offset="1" style="stop-color:#FFC50F"/>
			</linearGradient>
			<path class="st6" d="M757.2,190.7c-20,11.5-30.4,36.5-25.1,58.8c5,23.8,27.7,42,51.9,42.3c16.4,1,32.3-5.1,45.5-14.5
				c-5.4-5.6-10.8-11-16.1-16.5c-11.1,7-25.1,11.6-37.9,6.4c-8.8-3-13.8-11.4-18-19c27.8-0.4,55.7,0,83.6-0.2
				c1.3-14,0.2-29-8.2-40.8C817.1,183,781.6,175.2,757.2,190.7z M757.5,226.7c5.2-11.6,16-22.2,29.7-21.3
				c12.9,0.2,22.6,10.3,27.7,21.3C795.7,227.1,776.6,227.1,757.5,226.7z"/>
			<linearGradient id="SVGID_6_" gradientUnits="userSpaceOnUse" x1="360.7498" y1="216.2719" x2="1018.0367" y2="216.2719">
				<stop  offset="0" style="stop-color:#FF6A33"/>
				<stop  offset="1" style="stop-color:#FFC50F"/>
			</linearGradient>
			<path class="st7" d="M903.7,182.8c-8.4,0.8-14.2,7.3-19.9,12.7c0.1-2.5,0.5-7.6,0.6-10.1c-8.8-0.1-17.7-0.1-26.5,0
				c0,34.7,0,69.4,0,104.1c8.8,0,17.5,0,26.3,0c0.2-20.1-0.2-40.1,0.1-60.2c0-8.7,4.5-18.4,13.5-20.7c8.5-2.4,15,5.1,21.2,9.7
				c4.7-7.3,9.3-14.7,14-22C925.1,188.7,915.3,181.2,903.7,182.8z"/>
			<linearGradient id="SVGID_7_" gradientUnits="userSpaceOnUse" x1="360.7498" y1="216.2719" x2="1018.0367" y2="216.2719">
				<stop  offset="0" style="stop-color:#FF6A33"/>
				<stop  offset="1" style="stop-color:#FFC50F"/>
			</linearGradient>
			<path class="st8" d="M1012,243.1c-10.5-13.7-28.7-15-42.9-22.6c-4.5-1.9-6.9-8.7-2.1-11.7c11.2-9.4,26.6-1.8,35.1,7.5
				c5.4-5.3,10.6-10.6,15.7-16.2c-17-19.4-49.1-24.1-69.3-7.1c-12.3,9.8-13.6,30.3-2.1,41.3c11.1,12,28.7,12.4,42,20.7
				c5.3,2.7,4.7,10.9-0.7,13c-12.1,5.9-25.2-1.5-33.7-10.2c-5.3,5.3-10.6,10.6-15.8,16c16.2,20.4,48.8,24.6,69.3,8.4
				C1019.1,273.2,1021.9,254.5,1012,243.1z"/>
		</g>
	</g>
</g>
</svg>
